<svg width="105" height="105" viewBox="0 0 105 105" fill="none" xmlns="http://www.w3.org/2000/svg">
<g filter="url(#filter0_d_81638_301)">
<circle cx="52.5" cy="42.5" r="32.5" fill="url(#paint0_linear_81638_301)" shape-rendering="crispEdges"/>
</g>
<path d="M52.3819 43.8915C48.285 43.8915 44.188 43.8915 40.0911 43.8908C39.9614 43.8908 39.8273 43.8945 39.7022 43.8669C39.2544 43.7686 38.9519 43.3372 39.0063 42.8932C39.0607 42.4484 39.4399 42.1116 39.913 42.1094C40.9836 42.1034 42.055 42.1064 43.1256 42.1064C50.3234 42.1064 57.5212 42.1072 64.719 42.1087C64.8575 42.1087 65.0013 42.1049 65.1347 42.1362C65.5743 42.2398 65.8641 42.6555 65.8179 43.0921C65.7702 43.5391 65.3947 43.8871 64.9246 43.8893C63.7139 43.8967 62.504 43.893 61.2933 43.893C58.3228 43.893 55.3524 43.893 52.3827 43.893C52.3819 43.893 52.3819 43.8923 52.3819 43.8915Z" fill="white"/>
<path d="M49.555 55C48.2043 54.7974 46.8193 54.7214 45.511 54.3652C42.7648 53.6165 41.195 51.7241 40.7443 48.9272C40.5774 47.8924 40.4746 46.8471 40.3554 45.8055C40.2831 45.176 40.5833 44.7632 41.1317 44.6954C41.6763 44.6284 42.0756 44.9815 42.136 45.5276C42.2656 46.7078 42.3558 47.8976 42.5785 49.0613C42.9809 51.1631 44.7019 52.6286 46.8364 52.8163C47.8459 52.905 48.854 53.0175 49.8605 53.1337C50.5951 53.2186 50.9341 54.0344 50.4945 54.6312C50.3046 54.8897 50.0803 54.9635 49.555 55Z" fill="white"/>
<path d="M64.4462 40.3981C64.4305 40.5352 64.432 40.6775 64.3948 40.8086C64.3076 41.1185 64.0014 41.3778 63.7421 41.383C63.3003 41.3919 62.7996 41.0641 62.6976 40.6499C62.6245 40.3556 62.6223 40.0442 62.5821 39.7409C62.4569 38.7843 62.3966 37.8135 62.188 36.8755C61.7603 34.9556 60.5325 33.7375 58.614 33.3225C57.4741 33.0759 56.297 32.9999 55.1362 32.8471C55.0073 32.83 54.8754 32.824 54.7503 32.792C54.3308 32.6855 54.0581 32.2869 54.111 31.8704C54.1699 31.4077 54.5268 31.0538 54.973 31.0859C56.5041 31.1954 58.0426 31.3064 59.5118 31.7765C61.8631 32.5298 63.345 34.1577 63.9053 36.5395C64.201 37.7986 64.3016 39.1032 64.4901 40.3869C64.476 40.3914 64.4611 40.3943 64.4462 40.3981Z" fill="white"/>
<path d="M64.4225 45.8808C64.2988 47.1674 64.2086 48.5808 63.8167 49.9442C63.0777 52.5146 60.8962 54.2892 58.2372 54.5492C57.1554 54.655 56.0781 54.8108 54.9993 54.9441C54.6171 54.9918 54.2013 54.623 54.1209 54.1648C54.0404 53.7059 54.3287 53.2551 54.7832 53.194C55.3263 53.1203 55.8777 53.1061 56.4208 53.0331C57.3223 52.9132 58.2566 52.8804 59.1133 52.6084C60.97 52.0199 62.0071 50.6639 62.279 48.7454C62.4235 47.7255 62.5308 46.7003 62.6336 45.6751C62.6932 45.0821 63.0799 44.6686 63.6007 44.6984C64.1043 44.7275 64.4515 45.1745 64.4225 45.8808Z" fill="white"/>
<path d="M40.3291 40.2751C40.5273 38.9549 40.6204 37.6079 40.9445 36.319C41.6001 33.7106 43.3487 32.1185 45.9586 31.5329C47.1335 31.2692 48.3472 31.1775 49.5444 31.0173C49.7262 30.9927 49.9222 30.9913 50.098 31.033C50.5115 31.1306 50.7544 31.5098 50.7149 31.9404C50.6732 32.3912 50.3677 32.6907 49.9281 32.7398C48.8471 32.8605 47.7638 32.9708 46.6865 33.1228C44.4104 33.4432 42.8332 35.0234 42.5232 37.2846C42.375 38.3693 42.2565 39.4586 42.1291 40.5463C42.0777 40.9844 41.7015 41.3122 41.2418 41.3063C40.7955 41.3003 40.4148 40.9449 40.3902 40.5083C40.3857 40.4346 40.3894 40.3601 40.3894 40.2856C40.3693 40.2818 40.3492 40.2789 40.3291 40.2751Z" fill="white"/>
<defs>
<filter id="filter0_d_81638_301" x="0" y="0" width="105" height="105" filterUnits="userSpaceOnUse" color-interpolation-filters="sRGB">
<feFlood flood-opacity="0" result="BackgroundImageFix"/>
<feColorMatrix in="SourceAlpha" type="matrix" values="0 0 0 0 0 0 0 0 0 0 0 0 0 0 0 0 0 0 127 0" result="hardAlpha"/>
<feOffset dy="10"/>
<feGaussianBlur stdDeviation="10"/>
<feComposite in2="hardAlpha" operator="out"/>
<feColorMatrix type="matrix" values="0 0 0 0 0.829167 0 0 0 0 0.829167 0 0 0 0 0.829167 0 0 0 1 0"/>
<feBlend mode="normal" in2="BackgroundImageFix" result="effect1_dropShadow_81638_301"/>
<feBlend mode="normal" in="SourceGraphic" in2="effect1_dropShadow_81638_301" result="shape"/>
</filter>
<linearGradient id="paint0_linear_81638_301" x1="53" y1="-0.999999" x2="53" y2="81" gradientUnits="userSpaceOnUse">
<stop stop-color="#46A358" stop-opacity="0.4"/>
<stop offset="1" stop-color="#46A358"/>
</linearGradient>
</defs>
</svg>
